# AST/ASF file generated using VICON BodyLanguage
# -----------------------------------------------
:version 1.10
:name VICON
:units
  mass 1.0
  length 0.45
  angle deg
:documentation
   .ast/.asf automatically generated from VICON data using
   VICON BodyBuilder and BodyLanguage model FoxedUp or BRILLIANT.MOD
:root
   order TX TY TZ RX RY RZ
   axis XYZ
   position 0 0 0  
   orientation 0 0 0 
:bonedata
  begin
     id 1 
     name lhipjoint
     direction 0.627457 -0.725269 0.283342 
     length 2.53237 
     axis 0 0 0  XYZ
  end
  begin
     id 2 
     name lfemur
     direction 0.34202 -0.939693 0  
     length 7.32496  
     axis 0 0 20  XYZ
    dof rx ry rz
    limits (-160.0 20.0)
           (-70.0 70.0)
           (-60.0 70.0)
  end
  begin
     id 3 
     name ltibia
     direction 0.34202 -0.939693 0   
     length 7.69674   
     axis 0 0 20   XYZ
    dof rx
    limits (-10.0 170.0)
  end
  begin
     id 4 
     name lfoot
     direction 0.127289 -0.349722 0.928166   
     length 1.8612   
     axis -90 7.62852e-016 20   XYZ
    dof rx rz
    limits (-45.0 90.0)
           (-70.0 20.0)
  end
  begin
     id 5 
     name ltoes
     direction 1.53561e-011 -4.21864e-011 1   
     length 0.925608   
     axis -90 7.62852e-016 20   XYZ
    dof rx
    limits (-90.0 20.0)
  end
  begin
     id 6 
     name rhipjoint
     direction -0.609094 -0.738725 0.288599   
     length 2.48624  
     axis 0 0 0  XYZ 
  end
  begin
     id 7 
     name rfemur
     direction -0.34202 -0.939693 0   
     length 7.44259   
     axis 0 0 -20   XYZ
    dof rx ry rz
    limits (-160.0 20.0)
           (-70.0 70.0)
           (-70.0 60.0)
  end
  begin
     id 8 
     name rtibia
     direction -0.34202 -0.939693 0   
     length 7.7781   
     axis 0 0 -20   XYZ
    dof rx
    limits (-10.0 170.0)
 end
 begin
     id 9 
     name rfoot
     direction -0.107015 -0.294021 0.949789   
     length 2.14741  
     axis -90 -7.62852e-016 -20   XYZ
    dof rx rz
    limits (-45.0 90.0)
           (-20.0 70.0)
  end
  begin
     id 10 
     name rtoes
     direction -1.53497e-011 -4.21924e-011 1   
     length 1.0706   
     axis -90 -7.62852e-016 -20   XYZ
    dof rx
    limits (-90.0 20.0)
  end
  begin
     id 11 
     name lowerback
     direction -0.0142066 0.998112 -0.0597545   
     length 1.86627   
     axis 0 0 0   XYZ
    dof rx ry rz
    limits (-20.0 45.0)
           (-30.0 30.0)
           (-30.0 30.0)
  end
  begin
     id 12 
     name upperback
     direction 0.00547294 0.999744 0.0219437   
     length 1.86272   
     axis 0 0 0   XYZ
    dof rx ry rz
    limits (-20.0 45.0)
           (-30.0 30.0)
           (-30.0 30.0)
  end
  begin
     id 13 
     name thorax
     direction 0.0116162 0.998704 0.0495538   
     length 1.8703   
     axis 0 0 0   XYZ
    dof rx ry rz
    limits (-20.0 45.0)
           (-30.0 30.0)
           (-30.0 30.0)
  end
  begin
     id 14 
     name lowerneck
     direction -0.0106574 0.998739 0.0490586   
     length 1.8074   
     axis 0 0 0   XYZ
    dof rx ry rz
    limits (-20.0 45.0)
           (-30.0 30.0)
           (-30.0 30.0)
  end
  begin
     id 15 
     name upperneck
     direction 0.030527 0.976587 -0.212944   
     length 1.80681   
     axis 0 0 0   XYZ
    dof rx ry rz
    limits (-20.0 45.0)
           (-30.0 30.0)
           (-30.0 30.0)
  end
  begin
     id 16
     name head
     direction 0.00869225 0.997035 -0.0764531  
     length 1.8313  
     axis 0 0 0   XYZ
    dof rx ry rz
    limits (-20.0 45.0)
           (-30.0 30.0)
           (-30.0 30.0)
  end
  begin
     id 17 
     name lclavicle
     direction 0.915958 0.399447 0.0382386  
     length 3.78965  
     axis 0 0 0   XYZ
    dof ry rz
    limits (-20.0 10.0)
           (0.0 20.0)
  end
  begin
     id 18 
     name lhumerus
     direction 1 -4.48967e-011 3.19303e-027   
     length 4.78095   
     axis -180 -30 -90   XYZ
    dof rx ry rz
    limits (-60.0 90.0)
           (-90.0 90.0)
           (-90.0 90.0)
  end
  begin
     id 19
     name lradius
     direction 1 -4.48967e-011 -3.77974e-027   
     length 3.58615   
     axis -180 -30 -90   XYZ
    dof rx
    limits (-10.0 170.0)
  end
  begin
     id 20
     name lwrist
     direction 1 -4.48927e-011 1.2807e-027   
     length 1.79307   
     axis 1.91374e-015 90 90   XYZ
    dof ry
    limits (-180.0 0.0)
 end
  begin
     id 21 
     name lhand
     direction 1 -4.49036e-011 2.5614e-027   
     length 0.659812   
     axis -1.63439e-015 90 90   XYZ
    dof rx rz
    limits (-90.0 90.0)
           (-45.0 45.0)
  end
  begin
     id 22 
     name lfingers
     direction 1 -4.49052e-011 5.1228e-027   
     length 0.531957   
     axis -3.26879e-015 90 90   XYZ
    dof rx
    limits (0.0 90.0)
  end
  begin
     id 23
     name lthumb
     direction 0.707107 -6.35012e-011 0.707107   
     length 0.763787   
     axis -90 45 2.85299e-015   XYZ
    dof rx rz
    limits (-45.0 45.0)
           (-45.0 45.0)
  end
  begin
     id 24 
     name rclavicle
     direction -0.895351 0.435135 0.0948887   
     length 3.70497  
     axis 0 0 0   XYZ 
    dof ry rz
    limits (-10.0 20.0)
           (-20.0 0.0)
  end
  begin
     id 25 
     name rhumerus
     direction -1 -4.48971e-011 2.38946e-027  
     length 4.48913   
     axis -180 30 90   XYZ
    dof rx ry rz
    limits (-90.0 60.0)
           (-90.0 90.0)
           (-90.0 90.0)
  end
  begin
     id 26 
     name rradius
     direction -1 -4.4895e-011 4.38668e-027   
     length 3.7051   
     axis -180 30 90   XYZ
    dof rx
    limits (-10.0 170.0)
  end
  begin
     id 27 
     name rwrist
     direction -1 -4.49007e-011 1.2807e-027   
     length 1.85255   
     axis 1.91374e-015 -90 -90   XYZ
    dof ry
    limits (-180.0 0.0)
  end
  begin
     id 28
     name rhand
     direction -1 -4.48851e-011 2.5614e-027   
     length 0.449136   
     axis -1.63439e-015 -90 -90   XYZ
    dof rx rz
    limits (-90.0 90.0)
           (-45.0 45.0)
  end
  begin
     id 29
     name rfingers
     direction -1 -4.49128e-011 5.1228e-027   
     length 0.362105   
     axis -3.26879e-015 -90 -90   XYZ
    dof rx
    limits (0.0 90.0)
  end
  begin
     id 30
     name rthumb
     direction -0.707107 -6.34851e-011 0.707107   
     length 0.519912   
     axis -90 -45 -2.85299e-015   XYZ
    dof rx rz
    limits (-45.0 45.0)
           (-45.0 45.0)
  end
:hierarchy
  begin
    root lhipjoint rhipjoint lowerback
    lhipjoint lfemur
    lfemur ltibia
    ltibia lfoot
    lfoot ltoes
    rhipjoint rfemur
    rfemur rtibia
    rtibia rfoot
    rfoot rtoes
    lowerback upperback
    upperback thorax
    thorax lowerneck lclavicle rclavicle
    lowerneck upperneck
    upperneck head
    lclavicle lhumerus
    lhumerus lradius
    lradius lwrist
    lwrist lhand lthumb
    lhand lfingers
    rclavicle rhumerus
    rhumerus rradius
    rradius rwrist
    rwrist rhand rthumb
    rhand rfingers
  end

#!OML:ASF I:\Actors\actors\Patient Classification 2\Patient 1\Session 1\actor1.ASF
:FULLY-SPECIFIED
:DEGREES
44
root -0.591272 18.6708 5.65961 1.22853 -4.54978 -2.70309
lowerback 1.0806 1.11741 1.31037
upperback -2.20524 1.53223 0.322631
thorax -2.84312 0.739168 -0.45654
lowerneck -11.3541 -1.8988 -1.89503
upperneck 29.3275 -3.27537 3.19719
head 11.4913 -1.31045 1.07528
rclavicle -1.62631e-014 -8.94531e-015
rhumerus -49.7912 -9.00695 -83.2441
rradius 43.0178
rwrist 21.8509
rhand -7.42585 -36.1674
rfingers 7.12502
rthumb 18.4612 -65.3114
lclavicle -1.62631e-014 -8.94531e-015
lhumerus -43.3754 -1.29802 90.8246
lradius 37.2136
lwrist -5.38063
lhand -11.58 -28.8947
lfingers 7.12502
lthumb 14.4617 0.581396
rfemur 0 0 0
rtibia 0
rfoot 0 0
rtoes 0
lfemur -2.84406 -6.80293 -12.4038
ltibia 21.6544
lfoot -25.3646 17.463
ltoes -54.0233
45
root -0.59115 18.6711 5.65975 1.23352 -4.55912 -2.69991
lowerback 1.09082 1.1193 1.31858
upperback -2.2225 1.53512 0.314665
thorax -2.8662 0.740103 -0.469853
lowerneck -11.3506 -1.89381 -1.86028
upperneck 29.3704 -3.2681 3.16356
head 11.5058 -1.30718 1.05812
rclavicle -6.54747e-015 5.56597e-015
rhumerus -49.826 -8.99136 -83.2528
rradius 42.9801
rwrist 21.7492
rhand -7.20385 -36.3981
rfingers 7.12502
rthumb 18.6748 -65.5216
lclavicle -6.54747e-015 5.56597e-015
lhumerus -43.3464 -1.20486 90.771
lradius 37.0996
lwrist -5.54931
lhand -11.2191 -28.6326
lfingers 7.12502
lthumb 14.8094 0.818183
rfemur 0 0 0
rtibia 0
rfoot 0 0
rtoes 0
lfemur -2.85023 -6.80888 -12.4111
ltibia 21.6465
lfoot -25.3105 17.5308
ltoes -54.1037
46
root -0.59111 18.6708 5.66024 1.23621 -4.57745 -2.69986
lowerback 1.08696 1.12192 1.33001
upperback -2.2288 1.53873 0.307692
thorax -2.86998 0.741511 -0.483518
lowerneck -11.3856 -1.89115 -1.8239
upperneck 29.4356 -3.26087 3.11603
head 11.5366 -1.30485 1.03533
rclavicle -2.33075e-014 -4.17448e-015
rhumerus -49.8331 -9.00358 -83.2605
rradius 42.9297
rwrist 21.691
rhand -6.94485 -36.6568
rfingers 7.12502
rthumb 18.9239 -65.7562
lclavicle -2.33075e-014 -4.17448e-015
lhumerus -43.2937 -1.12437 90.7164
lradius 36.997
lwrist -5.76505
lhand -10.46 -27.933
lfingers 7.12502
lthumb 15.5406 1.46256
rfemur 0 0 0
rtibia 0
rfoot 0 0
rtoes 0
lfemur -2.84818 -6.78373 -12.4123
ltibia 21.6497
lfoot -25.3008 17.5279
ltoes -54.0641
47
root -0.591322 18.6704 5.66123 1.24266 -4.59282 -2.71399
lowerback 1.05626 1.12455 1.36718
upperback -2.21703 1.5423 0.300419
thorax -2.83934 0.742648 -0.511054
lowerneck -11.4394 -1.88826 -1.81385
upperneck 29.4945 -3.25288 3.08993
head 11.5697 -1.30228 1.02492
rclavicle 2.1916e-014 2.78299e-015
rhumerus -49.7906 -9.04807 -83.2702
rradius 42.9004
rwrist 21.7122
rhand -6.9448 -36.6207
rfingers 7.12502
rthumb 18.9239 -65.7201
lclavicle 2.1916e-014 2.78299e-015
lhumerus -43.2616 -1.15956 90.7235
lradius 36.9967
lwrist -5.83199
lhand -10.1223 -27.5111
lfingers 7.12502
lthumb 15.8659 1.85892
rfemur 0 0 0
rtibia 0
rfoot 0 0
rtoes 0
lfemur -2.84518 -6.75363 -12.3941
ltibia 21.6546
lfoot -25.3217 17.4986
ltoes -54.0107
48
root -0.591572 18.6708 5.66254 1.25816 -4.59744 -2.72759
lowerback 1.02226 1.12368 1.39578
upperback -2.2151 1.54105 0.294201
thorax -2.81732 0.741492 -0.532599
lowerneck -11.4793 -1.89155 -1.80458
upperneck 29.5782 -3.25378 3.06053
head 11.6099 -1.30422 1.01249
rclavicle -2.52208e-015 1.76918e-014
rhumerus -49.7794 -9.06518 -83.2884
rradius 42.9033
rwrist 21.6888
rhand -6.92966 -36.6041
rfingers 7.12502
rthumb 18.9385 -65.7021
lclavicle -2.52208e-015 1.76918e-014
lhumerus -43.2797 -1.30256 90.7901
lradius 37.0471
lwrist -5.74832
lhand -10.164 -27.4169
lfingers 7.12502
lthumb 15.8257 1.95628
rfemur 0 0 0
rtibia 0
rfoot 0 0
rtoes 0
lfemur -2.85699 -6.73674 -12.3753
ltibia 21.6552
lfoot -25.3144 17.5075
ltoes -54.0512
49
root -0.591775 18.6709 5.66364 1.26025 -4.59238 -2.71404
lowerback 0.992883 1.11541 1.3865
upperback -2.20899 1.52889 0.283024
thorax -2.79462 0.735697 -0.537738
lowerneck -11.5052 -1.89666 -1.78358
upperneck 29.6708 -3.26384 3.04097
head 11.6511 -1.30792 1.00059
rclavicle -1.20389e-014 -3.97569e-016
rhumerus -49.7775 -9.03571 -83.3327
rradius 42.9248
rwrist 21.6387
rhand -6.00345 -37.0288
rfingers 7.12502
rthumb 19.829 -66.0373
lclavicle -1.20389e-014 -3.97569e-016
lhumerus -43.2744 -1.35055 90.7264
lradius 37.0117
lwrist -6.14333
lhand -9.83597 -27.5201
lfingers 7.12502
lthumb 16.1416 1.82778
rfemur 0 0 0
rtibia 0
rfoot 0 0
rtoes 0
lfemur -2.86278 -6.72875 -12.388
ltibia 21.6586
lfoot -25.295 17.518
ltoes -54.1115
50
root -0.592023 18.6705 5.66363 1.23505 -4.57065 -2.69622
lowerback 0.985459 1.10781 1.37802
upperback -2.18998 1.51788 0.270605
thorax -2.77092 0.730503 -0.544965
lowerneck -11.5412 -1.90194 -1.7734
upperneck 29.7707 -3.27443 3.03101
head 11.6978 -1.31163 0.994013
rclavicle -6.94504e-015 3.97569e-016
rhumerus -49.7699 -8.98816 -83.3903
rradius 42.9704
rwrist 21.5974
rhand -5.02611 -37.4763
rfingers 7.12502
rthumb 20.7683 -66.3849
lclavicle -6.94504e-015 3.97569e-016
lhumerus -43.2317 -1.4507 90.6752
lradius 36.9673
lwrist -6.64164
lhand -9.43455 -27.6551
lfingers 7.12502
lthumb 16.5281 1.66102
rfemur 0 0 0
rtibia 0
rfoot 0 0
rtoes 0
lfemur -2.84784 -6.70483 -12.4026
ltibia 21.6662
lfoot -25.2683 17.4982
ltoes -54.1624
51
root -0.592199 18.6705 5.66244 1.22107 -4.531 -2.6846
lowerback 0.99143 1.09903 1.36675
upperback -2.18329 1.50588 0.26832
thorax -2.76783 0.724783 -0.54066
lowerneck -11.5716 -1.91551 -1.74883
upperneck 29.8657 -3.28261 2.96328
head 11.7399 -1.31987 0.963764
rclavicle -1.55922e-014 8.94531e-015
rhumerus -49.7613 -8.85768 -83.4859
rradius 43.0251
rwrist 21.5269
rhand -6.48885 -37.1149
rfingers 7.12502
rthumb 19.3624 -66.171
lclavicle -1.55922e-014 8.94531e-015
lhumerus -43.2133 -1.97522 90.983
lradius 37.0703
lwrist -6.17371
lhand -9.65807 -27.3549
lfingers 7.12502
lthumb 16.3129 1.979
rfemur 0 0 0
rtibia 0
rfoot 0 0
rtoes 0
lfemur -2.85177 -6.69349 -12.4085
ltibia 21.6761
lfoot -25.2598 17.4548
ltoes -54.1504
52
root -0.592209 18.6704 5.66121 1.21552 -4.49176 -2.66379
lowerback 0.987461 1.07804 1.33282
upperback -2.17135 1.4771 0.277849
thorax -2.75489 0.711411 -0.510729
lowerneck -11.605 -1.92609 -1.73456
upperneck 29.9425 -3.27818 2.87873
head 11.7751 -1.32587 0.930517
rclavicle -1.82136e-014 -4.77083e-015
rhumerus -49.7008 -8.54015 -83.6803
rradius 43.0946
rwrist 21.5068
rhand -8.26205 -36.6743
rfingers 7.12502
rthumb 17.6567 -65.8926
lclavicle -1.82136e-014 -4.77083e-015
lhumerus -43.1403 -2.59016 91.3322
lradius 37.1233
lwrist -5.68764
lhand -9.98435 -27.1176
lfingers 7.12502
lthumb 15.9987 2.24181
rfemur 0 0 0
rtibia 0
rfoot 0 0
rtoes 0
lfemur -2.86737 -6.7024 -12.4298
ltibia 21.6926
lfoot -25.2804 17.3975
ltoes -54.1
53
root -0.592491 18.6704 5.65915 1.21448 -4.46022 -2.64794
lowerback 0.98279 1.05093 1.28464
upperback -2.15905 1.43996 0.294437
thorax -2.7418 0.694251 -0.465305
lowerneck -11.6482 -1.92324 -1.76401
upperneck 30.0287 -3.26524 2.86394
head 11.8179 -1.32418 0.931933
rclavicle 2.78299e-015 -5.1684e-015
rhumerus -49.6218 -8.03618 -83.9927
rradius 43.1947
rwrist 21.4208
rhand -8.00974 -36.8638
rfingers 7.12502
rthumb 17.8995 -66.0601
lclavicle 2.78299e-015 -5.1684e-015
lhumerus -42.9937 -3.04143 91.5061
lradius 37.0617
lwrist -5.73017
lhand -9.92731 -27.179
lfingers 7.12502
lthumb 16.0536 2.1759
rfemur 0 0 0
rtibia 0
rfoot 0 0
rtoes 0
lfemur -2.89801 -6.65745 -12.4389
ltibia 21.7166
lfoot -25.238 17.36
ltoes -54.1462
54
root -0.593501 18.671 5.65504 1.23608 -4.43138 -2.65121
lowerback 0.976675 1.02369 1.23401
upperback -2.15863 1.40287 0.317818
thorax -2.7403 0.677112 -0.41167
lowerneck -11.6562 -1.90189 -1.76889
upperneck 30.0972 -3.2331 2.85561
head 11.8457 -1.31081 0.934333
rclavicle -9.28076e-015 -7.95139e-015
rhumerus -49.5091 -7.29019 -84.481
rradius 43.2579
rwrist 21.0078
rhand -6.38777 -38.0069
rfingers 7.12502
rthumb 19.4596 -67.0531
lclavicle -9.28076e-015 -7.95139e-015
lhumerus -42.8586 -3.50486 91.6715
lradius 37.1396
lwrist -5.65747
lhand -9.70802 -27.1401
lfingers 7.12502
lthumb 16.2648 2.19773
rfemur 0 0 0
rtibia 0
rfoot 0 0
rtoes 0
lfemur -2.96209 -6.58147 -12.4126
ltibia 21.738
lfoot -25.1443 17.3351
ltoes -54.2543
55
root -0.594086 18.6718 5.6509 1.25329 -4.42579 -2.66707
lowerback 0.941056 1.00097 1.21286
upperback -2.13117 1.37163 0.336846
thorax -2.69336 0.662595 -0.378288
lowerneck -11.6915 -1.87074 -1.73062
upperneck 30.2035 -3.19366 2.83157
head 11.8929 -1.29066 0.924361
rclavicle -4.32357e-015 5.76476e-015
rhumerus -49.3226 -6.3247 -85.1517
rradius 43.3745
rwrist 20.6627
rhand -5.42472 -39.2849
rfingers 7.12502
rthumb 20.3853 -68.2349
lclavicle -4.32357e-015 5.76476e-015
lhumerus -42.7206 -4.10474 91.8764
lradius 37.4386
lwrist -5.2735
lhand -9.78294 -27.6095
lfingers 7.12502
lthumb 16.1927 1.73418
rfemur 0 0 0
rtibia 0
rfoot 0 0
rtoes 0
lfemur -3.00851 -6.5526 -12.3834
ltibia 21.7576
lfoot -25.1098 17.3227
ltoes -54.2754
